<svg width="463" height="80" viewBox="0 0 463 80" fill="none" xmlns="http://www.w3.org/2000/svg">
<path d="M21.2932 63.2637C8.14052 63.2637 0.974031 53.9894 0.974031 40.2466C0.974031 27.094 8.39346 17.2295 21.4618 17.2295C31.9164 17.2295 38.4084 22.9627 39.7574 32.7429H31.6635C30.7361 26.5881 27.195 23.4686 21.3775 23.4686C13.3679 23.4686 9.06795 30.2135 9.06795 40.2466C9.06795 50.364 13.5365 57.1089 21.3775 57.1089C27.0263 57.1089 30.9047 53.9894 32.2537 47.4131H39.8417C37.9869 58.0364 31.9164 63.2637 21.2932 63.2637ZM63.3015 63.2637C50.4018 63.2637 42.3922 53.8208 42.3922 40.2466C42.3922 26.7567 50.4861 17.2295 63.3858 17.2295C76.3698 17.2295 84.548 26.7567 84.548 40.2466C84.548 53.8208 76.4541 63.2637 63.3015 63.2637ZM63.3015 57.1089C71.4797 57.1089 76.5384 50.364 76.5384 40.3309C76.5384 30.2978 71.3954 23.4686 63.3858 23.4686C55.4605 23.4686 50.4018 30.1292 50.4018 40.1623C50.4018 50.2797 55.3762 57.1089 63.3015 57.1089ZM90.878 61.999V18.4942H98.1288V24.0588C100.658 20.0118 105.38 17.5668 111.197 17.5668C116.171 17.5668 121.062 19.9275 123.085 25.5764C126.71 19.9275 132.359 17.5668 138.514 17.5668C148.547 17.5668 152.51 23.8058 152.51 33.6703V61.999H144.753V37.8859C144.753 31.5625 144.247 23.7215 136.153 23.7215C126.795 23.7215 125.614 34.0075 125.614 40.4995V61.999H117.858V37.8859C117.858 31.5625 117.268 23.7215 109.174 23.7215C99.815 23.7215 98.6346 34.0075 98.6346 40.4995V61.999H90.878ZM161.278 61.999V18.4942H169.035V61.999H161.278ZM161.278 9.2199V0.788729H169.035V9.2199H161.278ZM178.325 61.999V18.4942H185.491V24.0588C189.454 18.8314 194.934 17.5668 199.319 17.5668C206.822 17.5668 211.207 20.4334 213.146 25.3234C214.326 28.2743 214.663 31.8154 214.663 35.9467V61.999H206.907V37.4643C206.907 30.7194 205.979 23.7215 197.632 23.7215C190.382 23.7215 186.082 28.7802 186.082 39.2349V61.999H178.325ZM240.395 79.2829C229.856 79.2829 223.195 74.8144 222.436 65.6244H230.446C230.783 71.0204 234.409 73.4654 240.564 73.4654C248.152 73.4654 252.114 69.7557 252.114 58.2893V53.9894C248.404 58.9638 244.526 60.5657 238.371 60.5657C227.579 60.5657 220.582 51.713 220.582 39.4035C220.582 28.1057 227.242 17.5668 238.793 17.5668C245.116 17.5668 249.753 19.9275 252.283 24.5646V18.4942H259.449V55.76C259.449 70.5988 255.234 79.2829 240.395 79.2829ZM240.311 54.5796C247.561 54.5796 252.199 48.4248 252.199 38.6447C252.199 29.792 247.393 23.5529 240.311 23.5529C232.807 23.5529 228.507 29.6233 228.507 38.5604C228.507 48.5935 233.06 54.5796 240.311 54.5796ZM311.264 63.2637C299.208 63.2637 292.378 57.6991 292.294 48.0033H300.135C300.135 54.158 304.266 57.2776 311.433 57.2776C317.335 57.2776 320.707 55.0012 320.707 50.7856C320.707 45.4739 315.395 44.3779 309.494 43.2818C301.906 41.8485 293.306 40.4995 293.306 29.8763C293.306 22.4568 300.051 17.2295 310.337 17.2295C321.297 17.2295 327.621 22.3725 327.705 31.8154H320.033C319.948 26.0822 316.829 23.3 310.168 23.3C304.856 23.3 301.4 25.6607 301.4 29.3704C301.4 34.2605 306.374 35.3565 312.107 36.4526C319.864 37.9702 328.97 39.4878 328.97 50.2797C328.97 58.1207 321.466 63.2637 311.264 63.2637ZM352.82 63.2637C339.92 63.2637 331.911 53.8208 331.911 40.2466C331.911 26.7567 340.005 17.2295 352.904 17.2295C365.888 17.2295 374.066 26.7567 374.066 40.2466C374.066 53.8208 365.973 63.2637 352.82 63.2637ZM352.82 57.1089C360.998 57.1089 366.057 50.364 366.057 40.3309C366.057 30.2978 360.914 23.4686 352.904 23.4686C344.979 23.4686 339.92 30.1292 339.92 40.1623C339.92 50.2797 344.895 57.1089 352.82 57.1089ZM398.355 63.2637C385.455 63.2637 377.446 53.8208 377.446 40.2466C377.446 26.7567 385.539 17.2295 398.439 17.2295C411.423 17.2295 419.601 26.7567 419.601 40.2466C419.601 53.8208 411.507 63.2637 398.355 63.2637ZM398.355 57.1089C406.533 57.1089 411.592 50.364 411.592 40.3309C411.592 30.2978 406.449 23.4686 398.439 23.4686C390.514 23.4686 385.455 30.1292 385.455 40.1623C385.455 50.2797 390.43 57.1089 398.355 57.1089ZM425.931 61.999V18.4942H433.098V24.0588C437.06 18.8314 442.541 17.5668 446.925 17.5668C454.429 17.5668 458.813 20.4334 460.752 25.3234C461.932 28.2743 462.27 31.8154 462.27 35.9467V61.999H454.513V37.4643C454.513 30.7194 453.586 23.7215 445.239 23.7215C437.988 23.7215 433.688 28.7802 433.688 39.2349V61.999H425.931Z" fill="#66615A"/>
</svg>
