<svg width="326" height="703" viewBox="0 0 326 703" fill="none" xmlns="http://www.w3.org/2000/svg">
<path d="M207.555 100.033C207.415 99.6675 207.684 99.2746 208.076 99.2746C211.554 99.2746 215.118 99.2746 218.582 99.2746C220.332 99.2746 221.616 98.8079 222.083 96.8242C222.199 96.0074 223.016 95.424 223.366 94.6072C223.833 93.7904 224.533 92.8569 224.65 91.9234C224.766 89.9397 225.7 89.1229 227.567 88.6562C228.267 88.5395 228.85 88.0728 229.434 87.606C231.768 85.739 234.918 85.8557 237.135 87.7227C237.835 88.3061 238.886 88.3061 239.702 88.7729C240.402 89.2396 241.686 89.7064 241.686 90.2898C241.803 92.0401 242.503 93.4403 243.786 94.7239C244.953 95.8907 244.603 99.0413 243.786 100.442C242.97 101.725 242.503 103.009 241.919 104.409V104.409C241.684 105.116 241.235 105.652 240.742 106.211C239.042 108.139 239.572 110.682 239.469 113.044C239.469 114.444 239.469 115.844 239.469 117.128C239.469 117.828 239.819 118.878 240.402 119.228C241.803 120.161 241.919 121.328 241.919 122.729C241.919 124.596 241.919 126.463 241.919 128.446C241.919 130.197 241.919 131.83 243.786 132.997C244.37 133.347 244.603 134.631 244.603 135.564C244.603 137.898 244.603 140.348 244.603 142.799C244.603 145.132 244.603 147.349 246.353 149.333C247.054 150.15 247.054 151.783 247.054 153.067C247.054 155.634 247.054 158.201 247.054 160.652C247.054 161.585 247.754 162.402 248.22 163.335C248.687 164.386 249.504 165.319 249.621 166.369C249.854 168.12 249.621 169.987 249.621 171.853C249.621 173.837 249.504 175.821 251.488 177.104V177.104C252.631 177.962 252.188 179.806 252.188 181.236C252.188 181.9 252.188 182.55 252.188 183.172C252.188 186.673 254.288 189.123 257.905 189.473C259.306 189.59 259.889 190.29 260.006 191.69C260.006 192.507 260.356 193.44 260.823 194.024C262.977 196.632 263.258 198.909 261.346 201.605C261.233 201.764 261.116 201.946 260.988 202.093V202.093C260.815 202.294 260.792 202.557 260.719 202.812C260.214 204.59 259.387 205.908 257.971 206.7C256.569 207.485 254.755 207.937 254.755 209.543V209.543C254.638 211.76 254.755 213.861 254.755 216.078C254.755 217.945 254.872 219.578 256.505 220.978C257.205 221.562 257.322 222.962 257.322 224.012C257.322 235.097 257.322 246.066 257.322 257.151C257.322 259.135 257.555 260.768 259.072 262.402C259.772 263.102 259.889 264.386 259.889 265.436C259.889 276.754 259.889 288.073 259.889 299.508C259.889 300.675 260.706 301.959 261.173 303.126C261.523 304.059 262.106 304.993 262.339 306.043C262.573 307.326 262.339 308.61 262.339 310.01C262.339 312.227 263.04 313.627 265.49 313.744C266.073 313.744 266.774 314.794 267.24 315.494C267.94 316.428 268.29 317.711 268.991 318.528C270.391 320.045 270.391 323.779 269.107 325.296C268.29 326.229 267.59 327.396 267.357 328.68C267.007 330.08 266.307 330.547 264.907 330.664C262.106 330.897 261.873 331.364 262.106 334.047C262.223 335.681 262.106 337.198 262.106 338.832C262.106 340.699 262.806 341.865 264.907 341.982V341.982C265.913 341.982 266.435 342.945 266.9 343.838C268.28 346.493 270.705 348.861 269.807 352.25V352.25C269.547 353.815 268.388 355.061 267.515 356.385C266.46 357.984 264.905 359.028 262.806 359.952C259.624 361.316 257.77 361.905 254.764 360.101C254.613 360.01 254.465 359.835 254.288 359.835V359.835C250.554 359.602 249.621 356.451 248.104 353.767C246.82 351.317 246.937 348.283 248.687 346.299C249.037 345.833 249.504 345.366 249.621 344.899C249.971 342.916 250.671 341.865 253.005 341.749C253.705 341.749 254.638 340.115 254.872 339.065C255.222 336.965 255.105 334.864 255.105 332.764C255.105 331.247 254.055 330.547 252.654 330.664C250.787 330.664 249.854 329.963 249.854 327.98C249.854 327.28 249.387 326.463 248.804 325.879C246.587 323.779 246.703 320.278 248.804 317.945C250.437 316.078 250.788 313.161 254.171 313.044C254.521 313.044 254.988 311.527 254.988 310.71C254.988 305.926 255.222 301.142 254.988 296.358C254.988 294.841 253.938 293.324 253.355 291.807C253.005 290.64 252.538 289.473 252.538 288.306C252.538 270.57 252.538 252.834 252.538 235.097C252.538 233.114 252.538 231.247 250.554 229.963C249.971 229.496 249.737 228.096 249.737 227.163C249.621 222.495 249.621 217.828 249.504 213.277C249.504 209.893 247.52 207.793 244.136 206.976C243.32 206.743 242.503 205.809 242.036 204.876C241.336 203.709 240.869 202.309 240.169 201.025C239.002 199.041 239.236 196.474 240.752 194.607C241.336 193.791 241.803 192.74 242.036 191.69C242.386 190.407 242.853 189.59 244.37 189.706C246.47 189.94 247.054 188.656 247.17 186.906C247.17 184.572 247.17 182.239 247.287 179.905C247.287 178.271 246.937 176.871 245.42 175.704C244.837 175.237 244.603 174.187 244.603 173.37C244.603 171.503 244.603 169.636 244.603 167.653C244.603 165.786 244.603 163.919 242.853 162.519C242.269 162.052 242.153 160.768 242.153 159.951C242.153 157.384 242.153 154.701 242.153 152.134C242.153 150.267 241.919 148.4 240.286 146.999C239.702 146.533 239.586 145.132 239.586 144.199C239.586 141.398 239.586 138.715 239.586 135.914C239.586 134.397 239.352 132.997 237.952 131.947V131.947C236.544 131.102 237.019 128.905 237.019 127.263C237.019 125.625 237.019 123.969 237.019 122.262C237.019 121.328 236.668 120.045 235.968 119.578C234.685 118.645 234.218 117.594 234.335 116.077C234.335 114.794 234.335 113.51 234.335 112.11C234.335 110.126 233.868 108.726 231.534 108.61C231.403 108.61 231.271 108.58 231.141 108.53C230.202 108.17 229.709 106.986 228.734 106.743V106.743C226.283 106.276 224.65 105.226 224.183 102.425C223.95 101.258 222.433 101.142 221.499 102.192C220.449 103.592 219.049 103.709 217.415 103.709C211.581 103.709 205.63 103.592 199.796 103.709C195.245 103.709 193.845 104.992 192.911 109.426C192.678 110.71 191.978 111.41 190.461 111.527C189.644 111.527 188.594 111.76 188.127 112.343C186.727 114.094 184.86 114.094 182.993 113.86C181.593 113.627 180.892 114.21 179.959 115.261C177.975 117.594 175.642 119.695 173.425 121.912C172.958 122.379 172.141 122.962 172.258 123.429C172.841 126.463 170.274 127.513 168.757 129.263C167.59 130.663 166.073 131.83 164.673 133.23C163.156 134.747 161.523 136.031 161.406 138.598C161.406 139.765 159.772 140.815 158.839 141.865C157.905 142.915 156.738 143.849 155.688 144.899C152.771 147.466 152.654 151.083 155.338 153.767C156.505 154.934 156.622 158.551 155.455 160.068C155.221 160.418 154.871 160.535 154.755 160.885C154.171 163.919 153.004 166.019 149.504 166.136C149.154 166.136 148.57 167.536 148.57 168.353C148.57 170.92 148.57 173.604 148.804 176.171C148.804 177.104 149.037 178.271 149.621 178.738C151.137 180.138 151.254 181.772 151.137 183.522C151.137 194.374 151.021 205.226 151.137 215.961C151.137 217.594 152.304 219.228 152.888 220.862C153.238 221.912 153.588 223.079 153.705 224.129C153.821 225.412 153.705 226.696 153.705 228.096C153.821 229.847 154.521 231.013 156.505 231.013C157.905 231.013 158.489 231.714 158.605 233.23C158.839 235.914 160.939 237.781 163.623 238.365C164.79 238.598 165.84 239.532 167.007 239.998C168.174 240.465 169.34 241.048 170.624 241.048C173.191 241.282 176.108 240.348 177.975 243.149V243.149C178.854 244.321 180.812 243.616 182.277 243.616C183.423 243.616 184.587 243.616 185.793 243.616C187.66 243.616 189.294 243.499 190.577 245.366C190.927 245.949 192.211 246.066 193.144 246.183C195.945 246.416 198.862 245.716 201.313 248.283C202.129 249.1 204.23 248.516 205.747 248.633C207.847 248.633 209.831 248.4 211.348 250.617C212.281 252.017 217.415 251.55 218.932 250.267C219.749 249.683 220.799 249.216 221.733 248.75C222.316 248.4 223.133 248.283 223.716 247.816C226.283 245.716 228.734 246.066 231.651 247.35C234.451 248.633 236.085 250.033 237.485 252.95C239.236 256.568 239.819 258.085 237.252 261.235C236.785 261.819 236.552 262.635 236.552 263.452C236.552 265.203 235.735 266.136 233.868 266.136C231.884 266.136 230.951 266.953 231.184 269.053C231.184 269.753 230.951 270.687 230.367 271.037C228.967 271.97 228.734 273.254 228.734 274.771C228.734 282.239 228.734 289.707 228.734 297.291C228.734 299.158 228.5 300.792 227.1 302.309C226.283 303.126 226.05 304.642 226.05 305.926C226.05 313.161 226.05 320.512 226.05 327.746C226.05 329.963 225.817 331.947 224.3 333.814C223.716 334.631 223.6 336.031 223.483 337.081C223.483 344.899 223.483 352.834 223.366 360.652C223.366 361.702 223.133 362.986 222.433 363.569C221.149 364.853 220.799 366.37 220.799 368.12C220.799 375.821 220.799 383.522 220.799 391.224C220.799 392.507 219.866 393.674 219.516 394.958C219.049 396.241 218.349 397.525 218.349 398.692C218.349 406.276 218.349 413.978 218.349 421.562C218.349 423.312 217.999 424.713 216.715 426.113C216.015 426.93 215.665 428.33 215.665 429.497C215.665 437.315 215.665 445.133 215.548 453.067C215.548 454.351 214.498 455.634 214.148 456.918C214.041 457.344 213.924 457.781 213.819 458.223C213.349 460.193 214.256 461.864 216.015 462.869V462.869C216.598 463.219 217.649 463.219 217.765 463.569C218.699 466.72 221.966 469.053 220.799 472.904C220.682 473.488 220.332 473.954 220.099 474.421C219.399 475.588 218.932 476.988 218.115 478.038C217.532 478.855 216.482 479.555 215.432 479.789C213.798 480.139 213.098 480.839 213.098 482.589C213.098 486.906 213.098 491.341 213.215 495.658C213.215 513.161 213.215 530.547 213.215 548.05C213.215 549.217 212.514 550.5 212.048 551.667C211.581 553.068 210.647 554.584 210.647 555.985C210.647 572.437 210.647 589.007 210.647 605.46C210.647 610.477 210.647 615.611 210.414 620.629C210.414 623.779 210.881 624.48 213.798 625.296C214.381 625.413 215.081 626.113 215.432 626.813C216.132 628.097 216.598 629.614 217.299 630.897C218.582 632.998 218.465 635.331 216.832 637.082C215.665 638.365 215.782 639.299 216.949 640.349C220.566 643.849 224.3 647.233 227.917 650.734C229.201 652.018 230.484 653.301 231.534 654.701C232.351 655.751 233.051 655.868 233.868 654.935C235.385 652.951 237.602 653.184 239.702 653.184V653.184C240.435 653.184 240.93 653.751 241.446 654.272C242.568 655.404 244.052 655.889 245.77 655.985C246.12 655.985 246.47 657.152 246.703 657.735C247.287 658.902 247.637 660.186 248.337 661.119C249.854 662.986 249.621 666.837 247.87 668.354C247.287 668.82 247.054 669.637 246.703 670.337C246.47 670.921 246.353 671.621 246.003 672.204V672.204C245.459 673.021 244.331 673.072 243.438 673.477C240.969 674.598 238.911 676.988 235.852 675.705C235.385 675.471 234.918 675.005 234.451 674.771C233.518 674.188 232.584 673.488 231.534 673.254C230.134 672.904 229.551 672.204 229.084 670.804C228.734 669.754 228.267 668.704 227.567 667.887C226.167 666.253 226.167 662.403 227.684 660.886C229.901 658.902 229.784 657.035 227.567 655.168C226.75 654.585 226.283 653.534 225.583 652.951C224.066 651.667 222.783 650.151 220.332 649.8C218.932 649.567 217.882 647.7 216.715 646.65C215.665 645.6 214.615 644.666 213.681 643.616C212.631 642.566 211.814 642.566 210.647 643.616C208.78 645.366 205.28 645.133 203.413 643.616C202.713 643.033 201.779 642.799 200.962 642.449C200.379 642.216 199.329 642.099 199.212 641.749C198.512 638.715 195.245 636.732 195.712 633.114C195.712 632.531 195.712 631.831 196.062 631.481C196.766 630.564 197.471 629.648 197.996 628.629C198.697 627.268 199.102 625.548 200.612 625.296V625.296C204.23 624.713 206.097 622.729 206.097 618.995C206.097 611.411 206.097 603.709 206.097 596.125C206.097 559.602 206.097 523.079 206.097 486.673C206.097 486.206 206.097 485.623 206.097 485.156C206.33 481.305 206.33 481.305 202.479 480.255C201.896 480.022 201.079 479.322 200.962 478.738C200.729 477.105 200.379 475.938 198.979 474.771C197.929 473.954 198.395 469.637 199.212 468.353C199.912 467.42 200.496 466.253 200.729 465.203C201.079 463.686 201.663 462.869 203.18 463.102C205.163 463.336 205.98 462.402 206.097 460.535C206.097 459.952 206.097 459.135 206.447 458.902C209.481 456.335 208.664 452.834 208.78 449.567C208.78 443.032 208.664 436.498 208.664 429.964C208.664 429.03 209.014 427.746 209.714 427.28C211.114 426.23 211.231 424.946 211.231 423.429C211.231 415.844 211.231 408.143 211.231 400.559C211.231 398.692 211.464 397.058 212.864 395.541C213.565 394.841 213.681 393.557 213.681 392.507C213.681 384.806 213.565 377.105 213.681 369.403C213.681 368.003 214.615 366.486 215.198 365.086C215.548 364.152 216.365 363.219 216.365 362.169C216.365 354.701 216.365 347.233 216.365 339.648C216.365 337.548 216.715 335.681 217.999 333.931C218.699 332.997 218.932 331.48 218.932 330.197C218.932 322.379 218.932 314.678 218.932 306.86C218.932 305.693 219.516 304.526 219.866 303.476C220.332 302.192 221.266 300.909 221.266 299.625C221.383 291.457 221.266 283.289 221.266 275.238C221.266 273.837 221.849 272.904 222.783 271.854C223.6 270.92 224.066 269.287 223.95 268.003C223.95 267.42 222.316 266.836 221.383 266.253C220.682 265.903 219.632 265.786 219.399 265.203C218.232 262.985 217.065 260.652 216.248 258.201C215.782 256.801 215.315 255.984 213.798 255.984C213.098 255.984 212.164 255.984 211.814 255.401C210.064 253.067 207.73 253.301 205.28 253.417C203.296 253.417 201.429 253.534 200.146 251.55C199.796 251.083 198.745 250.85 197.929 250.85C196.295 250.85 194.545 250.85 192.911 250.85C192.211 250.85 191.044 250.617 190.811 250.15C189.877 248.4 188.36 248.4 186.727 248.516C185.093 248.516 183.343 248.516 181.709 248.516C179.959 248.516 178.209 248.516 177.158 246.649V246.649C176.242 245.427 174.291 245.843 172.763 245.874C171.912 245.891 171.077 245.894 170.274 245.833C169.224 245.716 168.174 245.249 167.357 244.666C165.84 243.499 161.756 242.565 160.006 243.616C159.422 243.966 159.072 244.899 158.722 245.716V245.716C158.021 246.884 157.305 247.622 156.1 248.258C154.054 249.337 152.325 251.184 149.621 250.733C147.053 250.267 144.836 250.733 142.853 252.95C138.535 257.618 133.868 261.819 129.55 266.486C128.5 267.653 128.15 269.637 128.034 271.27C127.8 273.721 128.384 276.288 125.933 277.921C125.583 278.155 125.466 278.621 125.466 279.088C125.35 280.955 124.416 281.772 122.549 281.772C120.916 281.772 120.332 282.822 120.332 284.339C120.332 343.499 120.332 402.542 120.332 461.702C120.332 466.953 120.332 472.321 120.332 477.572C120.332 479.672 121.149 480.955 123.133 481.305C124.533 481.539 125.35 482.239 125.466 483.756C125.466 484.456 125.933 485.156 126.283 485.74C128.734 488.89 128.734 490.99 126.283 493.908C125.933 494.374 125.583 495.074 125.583 495.658C125.583 497.525 124.533 498.108 122.899 498.342C120.332 498.692 117.999 501.492 117.882 504.059C117.882 506.043 118.115 508.143 116.015 509.544V509.544C114.871 510.401 115.312 512.246 115.258 513.674C115.208 514.988 115.164 516.316 115.315 517.595C115.315 519.462 115.665 521.212 113.681 522.262C113.214 522.496 112.981 523.663 112.864 524.363C112.748 526.23 112.748 528.097 112.748 530.08C112.748 531.947 112.981 533.814 111.114 535.215V535.215C109.851 536.162 110.408 538.224 110.378 539.803C110.357 540.894 110.346 542.002 110.414 543.149C110.414 545.133 110.414 546.883 108.547 548.167C108.08 548.517 107.847 549.567 107.847 550.267C107.847 552.134 107.847 554.001 107.847 555.985C107.847 557.852 107.847 559.602 106.097 560.886C105.513 561.352 105.28 562.402 105.28 563.219C105.28 565.086 105.513 567.07 105.28 568.937C105.046 570.454 104.346 571.971 103.763 573.488C103.413 574.538 102.829 575.471 102.713 576.405C102.596 578.155 102.713 580.022 102.713 581.889C102.713 583.756 102.829 585.623 100.962 586.907C100.496 587.257 100.262 588.307 100.262 589.007C100.262 590.641 100.146 592.391 100.262 594.024C100.379 596.008 100.262 597.642 98.7453 599.275C98.0452 599.975 97.6951 601.376 97.6951 602.426C97.4618 604.293 97.5784 606.16 97.6951 608.144C97.6951 609.894 97.6951 611.411 96.0615 612.461C95.4781 612.811 95.2447 613.978 95.2447 614.795C95.2447 617.245 95.2447 619.695 95.2447 622.146C95.2447 622.902 94.7086 623.735 94.1947 624.52C93.9599 624.879 93.7601 625.289 93.3924 625.511V625.511C93.1362 625.665 92.9297 625.881 92.8205 626.159C91.9722 628.32 92.7709 634.608 94.0778 635.915C94.6613 636.498 94.8946 637.315 95.2447 638.132C95.5948 638.715 95.5948 639.649 96.0615 639.999C98.0452 641.399 97.9285 643.266 97.6951 645.25C97.5784 646.067 97.1117 647 96.5283 647.583C94.5446 649.45 94.778 651.667 96.5283 653.534C98.1619 655.285 100.379 656.568 100.612 659.602C100.729 661.119 102.829 662.403 104.113 663.803C104.58 664.27 105.396 664.736 105.396 665.203C105.163 667.42 106.68 668.704 107.847 670.221C109.014 671.621 110.064 672.088 111.697 671.854C113.448 671.621 114.615 672.788 116.015 673.138C119.515 674.188 120.799 676.755 122.433 679.555C123.716 681.773 123.95 685.04 122.199 686.907C121.849 687.374 121.149 687.84 121.149 688.307C121.032 690.874 119.515 691.691 117.298 692.158C116.598 692.274 116.132 692.974 115.548 693.325C113.681 694.725 111.114 694.608 109.247 693.325C108.197 692.624 107.03 692.158 105.863 691.574V691.574C105.33 691.308 104.763 691.092 104.362 690.652C102.459 688.561 100.596 682.585 101.429 680.606C101.546 680.256 101.896 679.906 102.246 679.555C104.813 676.988 104.813 673.604 102.246 671.037C101.896 670.687 101.429 670.221 101.429 669.871C101.662 666.487 98.7453 665.32 97.1117 663.336C95.5948 661.586 93.0277 660.419 93.261 657.502C93.261 656.918 92.3276 655.985 91.6274 655.868C90.4606 655.518 89.177 655.401 88.0102 655.518C86.0265 655.518 84.2762 654.935 82.4092 654.118C79.6087 652.834 78.2085 651.317 77.0417 648.634C75.5247 645.366 75.058 643.966 77.0417 640.932C77.3917 640.349 77.7418 639.765 77.8585 639.182C78.3252 637.082 79.3754 635.915 81.7091 635.915C83.226 635.915 85.5597 632.764 85.6764 631.014C85.6764 629.964 85.6764 629.03 85.6764 627.98V627.98C85.6764 626.713 86.8617 626.052 87.5924 625.017C88.5742 623.626 88.2435 621.802 88.2435 620.045C88.2435 618.762 88.2435 617.478 88.2435 616.078C88.2435 614.561 88.3602 613.278 89.8771 612.228C90.4606 611.761 90.8106 610.594 90.9273 609.777C91.044 608.027 90.8106 606.16 91.044 604.293C91.2774 602.659 92.0942 601.142 92.5609 599.509C93.0277 598.108 93.4944 596.825 93.6111 595.425C93.7278 593.674 93.6111 591.924 93.6111 590.174C93.6111 588.657 93.6111 587.373 95.128 586.323C95.7115 585.856 96.0615 584.689 96.0615 583.873C96.1782 581.889 95.9448 579.905 96.0615 578.038C96.1782 576.638 96.8783 575.355 97.3451 574.071C97.8118 572.904 98.3952 571.737 98.6286 570.454C98.862 568.47 98.6286 566.486 98.6286 564.619C98.6286 563.103 98.7453 561.819 100.146 560.769C100.729 560.302 101.079 559.135 101.079 558.202C101.196 555.868 101.079 553.418 101.079 550.967C101.079 549.917 101.896 548.984 102.363 548.05C102.829 547.117 103.529 546.3 103.646 545.366C103.88 543.616 103.763 541.866 103.646 540.115C103.646 538.015 103.529 536.031 105.396 534.631C105.98 534.164 106.097 532.997 106.097 532.181C106.213 530.314 106.213 528.563 106.097 526.696C106.097 524.713 105.746 522.846 107.964 521.679V521.679C109.25 521.036 108.664 518.972 108.664 517.534C108.664 516.434 108.664 515.344 108.664 514.211C108.664 512.227 108.43 510.127 110.531 508.727C110.997 508.493 111.114 507.56 111.114 506.976C111.114 504.993 111.114 503.009 110.881 501.142C110.881 500.442 110.414 499.859 110.064 499.158C109.597 497.992 109.13 496.825 108.547 495.775C108.314 495.308 108.197 494.608 107.847 494.258C105.396 491.457 105.746 488.89 107.613 485.74C108.295 484.5 108.878 483.359 109.713 482.474C111.313 480.777 113.681 479.904 113.681 477.572V477.572C113.681 464.386 113.681 451.2 113.681 438.132C113.681 423.546 113.564 409.077 113.564 394.491C113.564 391.69 113.564 388.773 113.798 385.973V385.973C113.798 384.79 114.823 384.03 115.465 383.038C116.794 380.985 116.248 378.481 116.248 376.288C116.248 349.683 116.248 323.079 116.248 296.474C116.248 293.791 116.248 291.107 116.248 288.423C116.248 285.389 113.798 282.822 110.764 282.122C110.064 282.005 109.247 281.072 108.78 280.255C108.314 279.555 108.547 278.271 107.964 277.921C105.98 276.521 105.98 274.654 106.213 272.67C106.33 271.62 107.03 270.687 107.497 269.753C107.964 268.82 108.43 268.003 108.78 267.186V267.186C109.238 266.042 110.029 265.434 111.134 264.89C113.328 263.808 115.063 261.633 117.765 262.285C118.815 262.519 119.982 262.985 120.799 263.686C123.133 265.786 124.533 265.553 126.517 263.336C128.5 261.118 130.834 259.252 132.934 257.151C135.852 254.351 138.652 251.434 141.452 248.516C142.736 247.116 142.386 245.132 140.869 243.966C139.119 242.565 138.885 238.131 140.519 236.498C141.219 235.798 141.803 234.747 142.036 233.814C142.269 232.297 142.969 231.48 144.37 231.597C146.82 231.597 147.987 229.847 149.27 228.33C149.621 227.863 149.27 226.346 148.804 225.996C147.52 225.062 147.17 223.896 147.17 222.379C147.17 216.544 147.17 210.593 147.17 204.759C147.17 202.659 146.82 200.908 145.536 199.041C144.72 197.991 144.603 196.124 144.603 194.724C144.603 188.073 144.603 181.305 144.486 174.654C144.486 173.604 143.553 172.554 143.086 171.62V171.62C142.149 169.981 142.456 167.578 140.874 166.546C140.461 166.276 139.919 166.136 139.235 166.136C137.602 166.136 136.902 165.436 136.902 163.685C136.902 162.869 136.435 162.052 135.852 161.468C133.751 159.135 134.101 156.218 135.735 153.534C137.135 151.083 138.302 148.983 141.336 147.933C142.736 147.466 143.903 146.299 145.653 146.533C149.27 147.116 151.954 145.716 154.288 143.032C154.521 142.799 154.871 142.449 154.871 142.215C155.221 138.014 158.955 136.264 161.289 133.58C161.756 132.997 162.689 132.297 162.573 131.713C162.223 128.796 164.673 127.746 166.073 126.112C167.123 124.829 168.407 123.779 169.574 122.612C169.924 122.262 170.274 121.912 170.274 121.562C170.041 118.528 172.608 117.244 174.241 115.494C175.642 114.094 176.225 112.46 175.408 111.06C174.941 110.243 173.191 109.776 171.908 109.66C169.574 109.426 167.24 109.543 164.906 109.66C164.09 109.66 163.039 110.01 162.456 110.71C161.289 111.877 160.006 112.343 158.372 112.227C156.505 112.227 154.755 112.227 152.888 112.227C151.254 112.227 149.971 112.577 148.804 113.86C148.337 114.444 147.17 114.794 146.353 114.794C143.203 114.794 140.052 114.794 137.018 114.794C136.202 114.794 134.918 114.794 134.568 115.377C133.051 117.594 130.834 117.361 128.617 117.361C126.983 117.361 125.466 117.361 123.833 117.361C122.549 117.361 121.499 117.594 120.682 118.878C120.332 119.461 119.282 119.928 118.582 120.045C117.415 120.161 116.132 120.161 114.848 120.045C111.814 119.461 109.947 121.562 108.08 123.195V123.195C106.842 124.124 108.188 126.674 106.84 127.431C106.53 127.605 106.131 127.708 105.63 127.746C102.596 127.979 100.262 130.547 100.146 133.697C100.146 135.797 99.9122 137.548 98.2786 139.181C97.4618 139.998 97.5784 141.865 97.5784 143.265C97.5784 145.482 97.9285 147.699 95.8281 149.45C95.2447 149.916 95.128 151.083 95.128 151.9C95.128 153.767 95.128 155.634 95.128 157.618C95.128 159.368 95.128 161.002 93.3777 162.285C92.7943 162.752 92.5609 163.919 92.4442 164.852C92.3276 166.719 92.3276 168.586 92.4442 170.57C92.4442 172.437 92.6776 174.187 90.6939 175.354C90.2272 175.587 90.1105 176.638 90.1105 177.338C90.1105 179.088 90.1105 180.838 89.9938 182.589C89.9938 183.405 89.6438 184.456 89.0603 184.806C87.6601 185.739 87.4267 187.023 87.4267 188.54C87.4267 190.407 87.4267 192.157 87.4267 194.024C87.4267 195.774 87.0767 197.291 85.6764 198.691C84.8596 199.508 84.9763 201.258 84.8596 202.542C84.7429 203.942 84.8596 205.342 84.8596 206.626C84.9763 208.493 84.6263 210.127 82.9926 211.41C81.7091 212.46 82.1759 217.595 83.226 219.111C84.6263 220.978 85.9098 222.962 87.1934 224.829C87.4267 225.179 87.4267 225.763 87.5434 226.346C87.7768 230.313 85.4431 233.347 83.5761 236.498C83.1093 237.314 82.5259 238.131 82.5259 238.948C82.4092 242.449 82.2925 245.949 82.5259 249.45C82.5259 250.5 83.4594 251.55 83.9261 252.6C84.3929 253.651 85.093 254.701 85.093 255.751C85.2097 259.718 85.093 263.569 85.2097 267.536C85.2097 268.353 85.3264 269.637 85.9098 269.87C87.8935 270.92 87.5434 272.554 87.5434 274.304C87.4267 278.038 87.5434 281.889 87.6601 285.623C87.6601 286.556 88.4769 287.49 88.9437 288.423C89.4104 289.473 90.2272 290.523 90.3439 291.574C90.5773 294.141 90.3439 296.824 90.3439 299.392C90.3439 301.259 90.3439 302.892 92.0942 304.292C92.6776 304.759 92.911 306.159 92.911 307.093C92.911 311.06 92.911 315.144 92.911 319.112C92.911 320.045 93.4944 321.329 94.1945 321.912C95.3614 322.729 95.5948 323.779 95.5948 325.063C95.5948 327.046 95.5948 329.147 95.5948 331.13C95.5948 335.098 97.4618 337.081 101.312 338.015C102.013 338.131 102.713 339.182 103.179 339.882C103.646 340.582 103.646 341.515 104.23 342.215C106.563 345.249 106.097 347.116 104.23 350.5C102.946 352.834 102.246 355.168 99.0954 355.401C98.9725 355.401 98.8174 355.498 98.698 355.624C98.5082 355.824 98.4892 356.121 98.4445 356.393C98.2855 357.361 98.1271 358.297 97.7938 359.154C97.2334 360.596 96.5579 363.144 98.0452 363.569V363.569C98.8956 363.751 99.5247 364.028 99.9653 364.483C100.874 365.42 100.762 366.959 101.546 368.003V368.003C103.879 370.804 103.413 373.254 101.779 376.521C100.379 379.322 98.6286 380.722 95.9448 382.005C92.4442 383.639 91.044 384.106 87.8935 381.655C87.3101 381.189 86.2599 381.072 85.4431 380.839V380.839C84.2965 380.38 83.6347 379.61 83.1133 378.491C81.9231 375.936 79.6295 373.722 80.7756 370.57C81.009 369.987 81.359 369.403 81.5924 368.937C82.0592 367.886 82.7593 366.953 83.1093 365.903C83.4594 364.503 83.9262 363.686 85.5598 363.686V363.686C86.9988 363.686 88.3198 362.923 89.5999 362.266C90.3184 361.897 91.006 361.499 91.6274 361.002C92.2109 360.535 92.911 358.902 92.7943 358.785C91.3941 357.385 90.4606 355.168 87.8935 355.168V355.168C86.895 355.168 86.5607 354.068 86.1351 353.165C84.9752 350.703 82.4568 348.632 83.3427 345.483C83.5761 344.549 84.0428 343.616 84.5096 342.799V342.799C84.9779 342.096 85.3485 341.435 85.5831 340.624C86.0779 338.913 87.1194 337.898 89.4104 337.898C89.8771 337.898 90.8106 336.498 90.8106 335.798C91.044 331.83 90.9273 327.98 90.9273 324.012V324.012C90.9273 323.303 90.2479 322.911 89.7427 322.413C87.7533 320.455 88.5812 317.776 88.4769 315.378C88.4769 312.577 88.4769 309.893 88.4769 307.093C88.4769 306.159 88.1269 304.876 87.5434 304.292C85.9098 303.009 85.7931 301.375 85.7931 299.625C85.7931 297.058 86.0265 294.374 85.7931 291.807C85.7931 290.64 84.7429 289.59 84.2762 288.423C83.9261 287.606 83.3427 286.789 83.3427 285.856C83.3427 281.655 83.3427 277.455 83.3427 273.254C83.3427 272.437 82.9926 271.153 82.4092 270.803C80.5422 269.637 80.5422 268.003 80.5422 266.253C80.5422 262.869 80.7756 259.368 80.5422 255.984C80.5422 254.701 79.7254 253.534 79.2587 252.25C78.9086 251.317 78.3252 250.383 78.3252 249.45C78.2085 247.116 78.3252 244.782 78.3252 242.449C78.3252 240.465 77.5084 239.648 75.5247 239.065C73.191 238.481 70.974 237.081 68.8736 235.914C68.4069 235.681 68.2902 234.747 68.0568 234.164C67.7068 233.464 67.5901 232.53 67.0066 232.064C65.7231 231.013 65.6064 229.73 65.373 228.213C65.1397 226.346 65.373 225.062 67.0066 223.896C67.5901 223.546 67.5901 222.379 67.9401 221.562C68.2902 220.862 68.5236 219.928 69.107 219.695C71.324 218.645 73.6578 217.828 76.1082 217.128C77.9751 216.544 78.3252 215.261 78.4419 213.627C78.4419 211.643 78.2085 209.66 80.1922 208.143C80.8923 207.559 80.8923 205.809 80.8923 204.642C80.8923 202.075 80.6589 199.391 80.8923 196.824C80.8923 195.657 81.8258 194.607 82.2925 193.44C82.7593 192.274 83.4594 191.107 83.5761 189.94C83.8095 188.306 83.5761 186.556 83.5761 184.922C83.5761 182.939 83.4594 181.072 85.5598 179.788C86.0265 179.555 86.1432 178.388 86.1432 177.571C86.1432 175.587 86.1432 173.604 86.1432 171.737C86.1432 169.87 86.1432 168.12 87.8935 166.953V166.953C89.1568 166.005 88.5866 163.943 88.5282 162.365C88.4824 161.124 88.4516 159.875 88.5936 158.668C88.827 157.268 89.6438 155.984 90.2272 154.584C90.694 153.417 91.2774 152.134 91.2774 150.967C91.3941 148.633 91.2774 146.183 91.2774 143.732C91.2774 141.865 91.044 139.881 93.0277 138.715C93.4944 138.481 93.7278 137.431 93.7278 136.731C93.7278 134.747 93.7278 132.764 93.7278 130.897V130.897C93.7278 130.59 93.6556 130.287 93.5219 130.011C92.4478 127.792 91.5372 125.404 90.1105 123.429C88.3602 121.095 88.1268 117.828 90.1105 115.611C90.3439 115.377 90.6939 115.144 90.6939 115.027C90.6939 110.477 95.128 110.943 97.3451 109.076C98.862 107.793 102.129 109.193 103.879 110.01C106.913 111.293 109.364 114.21 113.098 113.86C114.498 113.744 116.015 113.86 117.415 113.86C119.399 113.86 121.149 113.86 122.549 111.993V111.993C123.692 110.565 126.035 111.186 127.864 111.217C128.915 111.235 129.949 111.239 130.951 111.177C132.351 110.943 133.751 110.126 135.035 109.66C135.852 109.426 136.668 108.96 137.485 108.96C140.636 108.843 143.903 108.96 147.053 108.726C147.987 108.726 149.387 108.61 149.854 107.909C151.371 106.042 153.354 106.042 155.338 106.042C156.855 106.042 158.372 106.042 159.889 106.042C160.589 106.042 161.639 106.042 161.989 105.576C163.973 102.892 166.773 103.592 169.34 103.475C173.541 103.242 175.291 101.608 176.342 97.641C176.458 96.9409 177.625 96.4742 178.442 96.0074C179.376 95.424 180.426 94.9572 181.476 94.4905C182.176 94.1404 182.759 93.557 183.46 93.4403C185.793 93.0903 186.493 91.8067 186.493 89.7064C186.493 84.2221 186.493 78.6212 186.493 73.1369C186.493 71.7367 186.727 70.5698 188.01 69.5196C188.71 68.9362 189.06 67.6527 189.06 66.6025C189.06 61.7017 189.06 56.6842 189.06 51.7833C189.06 49.683 189.06 47.816 190.927 46.2991C191.628 45.7156 191.744 44.1987 191.744 43.0319C191.744 38.5978 191.744 34.1637 191.744 29.7296C191.744 27.5126 191.744 25.4122 191.978 23.1952C192.094 21.2115 191.394 20.1613 189.411 20.278C187.427 20.278 186.377 19.5779 186.377 17.4776C186.377 16.8941 186.027 16.194 185.56 15.7273C183.109 13.0435 183.226 10.3597 185.56 7.55922C186.027 6.97579 186.377 6.0423 186.377 5.22549C186.377 3.82526 187.077 3.12515 188.477 3.00846C189.294 3.00846 190.111 2.65841 190.694 2.19166C193.728 -0.142063 196.062 0.324668 199.446 1.95828C202.129 3.24182 203.53 4.75876 204.813 7.44254C206.797 11.1765 206.797 11.9933 204.813 15.844C203.53 18.4111 202.246 19.6946 199.679 20.8615C197.112 21.9116 195.945 24.5954 196.062 27.8626C196.295 32.8802 196.178 38.0143 196.062 43.1485C196.062 44.1987 195.245 45.2489 194.778 46.4158C194.311 47.4659 193.611 48.5161 193.611 49.5663C193.611 54.7005 193.611 59.718 193.611 64.8522C193.611 66.8359 193.728 68.7028 191.744 69.9864C191.044 70.4531 190.811 71.97 190.811 72.9035C190.811 78.1544 190.811 83.522 190.811 88.7729C190.811 90.4065 190.811 91.9234 189.177 92.9736C188.827 93.2069 188.477 94.2571 188.71 94.7239V94.7239C189.487 96.0187 191.451 95.6562 192.586 96.6518C193.136 97.1338 193.424 97.8704 193.611 98.8079C193.845 100.325 194.778 100.792 196.295 100.792C199.875 100.792 203.455 100.792 207.034 100.792C207.426 100.792 207.696 100.399 207.555 100.033V100.033ZM238.185 671.271C242.736 671.271 245.07 668.587 244.953 664.036C244.953 661.936 243.67 660.652 242.619 659.135C241.569 657.618 240.169 657.385 238.652 657.852C238.636 657.855 238.619 657.859 238.603 657.863C237.412 658.15 237.09 659.988 238.185 660.536V660.536C238.995 661.008 239.415 661.598 239.557 662.282C239.78 663.357 239.518 664.712 238.535 665.203V665.203C238.302 665.32 237.602 664.97 237.252 664.62C236.202 663.569 235.268 662.519 234.335 661.469C233.401 660.419 232.234 660.652 231.884 661.936C230.484 666.253 233.518 671.621 238.419 671.271H238.185ZM91.4322 377.533C91.4151 377.55 91.4237 377.58 91.447 377.586C94.6777 378.478 96.1845 376.043 97.3451 373.954C98.2786 372.437 98.0452 370.22 98.0452 368.236C98.0452 368.222 98.0444 368.208 98.0429 368.194C97.9311 367.104 96.0183 367.244 95.3614 368.12V368.12C95.128 368.47 95.2447 368.937 95.2447 369.403C95.2447 371.387 94.1945 371.97 92.4442 371.854C90.6939 371.854 90.2272 370.804 90.3439 369.287C90.3439 368.47 90.4606 367.653 90.3439 366.953C90.3156 366.84 90.2822 366.727 90.2445 366.614C89.8027 365.289 88.0327 365.009 86.96 365.903V365.903V365.903C86.6478 366.215 86.3209 366.517 86.0332 366.852C84.299 368.87 84.4717 371.32 85.4431 373.371C86.4822 375.68 87.9782 378.217 91.4007 377.479C91.4319 377.473 91.4547 377.511 91.4322 377.533V377.533ZM201.166 10.1115C201.186 10.1212 201.207 10.1264 201.229 10.1262C201.259 10.126 201.295 10.1253 201.332 10.1228C201.55 10.1079 201.619 9.8787 201.552 9.67069C201.136 8.38416 200.78 7.10558 200.029 5.92562C198.279 3.12515 195.245 2.65841 192.561 3.35853C190.811 3.82527 188.944 5.80894 188.244 7.44254C187.544 9.19284 188.244 11.5266 188.594 13.5102C188.827 14.327 189.761 15.0271 190.577 15.7273C191.044 16.0773 191.861 16.6607 192.094 16.5441C192.561 16.3107 193.144 15.4939 193.261 14.9105C193.495 13.6269 193.261 12.3434 193.261 10.9431C193.261 9.42621 194.078 8.72609 195.712 8.84278C197.695 8.84278 198.279 10.0096 198.395 11.7599C198.395 11.8066 198.399 11.8528 198.406 11.8986C198.567 12.9638 200.538 12.8659 200.926 11.8609C200.93 11.8507 200.934 11.8404 200.938 11.8302C200.955 11.7837 200.975 11.7381 200.993 11.6919C201.15 11.289 201.012 10.7384 200.972 10.2371C200.964 10.1328 201.073 10.0647 201.166 10.1115V10.1115ZM118.651 682.589C118.679 682.589 118.705 682.57 118.713 682.542C119.498 679.99 117.229 678.785 115.652 677.173C115.249 676.761 114.835 676.294 114.262 676.359C114.063 676.382 113.883 676.436 113.798 676.522V676.522C113.165 677.154 113.878 678.129 114.607 678.648C114.648 678.677 114.69 678.707 114.731 678.739C115.782 679.672 116.015 682.123 114.965 683.056C113.798 684.106 112.398 683.99 111.231 683.056C110.064 682.006 109.13 680.956 107.964 679.906V679.906C107.053 678.995 105.39 679.243 105.283 680.527C105.281 680.554 105.28 680.58 105.28 680.606C105.046 683.173 104.813 685.506 107.38 687.373C109.597 689.007 112.514 690.174 114.848 689.124C116.932 688.313 118.671 685.55 118.584 682.658C118.583 682.621 118.613 682.589 118.651 682.589V682.589ZM265.607 350.383C265.607 349.917 265.723 349.45 265.607 349.1C265.257 348.166 264.79 346.65 264.206 346.533C262.573 346.299 262.69 347.816 262.456 348.983C262.339 349.683 261.873 350.734 261.523 350.734C259.772 350.967 258.022 351.2 256.388 350.734C255.805 350.617 255.572 348.867 255.105 347.816V347.816C254.587 346.781 252.504 346.658 252.315 347.801C252.308 347.844 252.304 347.888 252.304 347.933C252.071 350.617 251.838 353.184 254.638 355.051C256.622 356.334 259.772 357.501 261.639 356.685C263.623 355.868 265.723 352.484 265.607 350.267V350.383ZM118.052 265.975C117.71 265.851 117.342 265.802 116.981 265.851C112.689 266.435 110.629 268.653 110.181 273.021C109.947 275.471 111.114 276.754 112.748 278.038V278.038C113.748 278.838 115.818 278.395 115.907 277.117C115.912 277.035 115.91 276.953 115.898 276.871C115.548 273.837 116.948 271.854 119.049 269.987C119.076 269.963 119.102 269.939 119.129 269.915C120.391 268.768 119.655 266.558 118.052 265.975V265.975ZM237.672 92.8453C234.824 90.2533 230.619 91.2092 227.567 93.557V93.557C227.1 93.9071 226.517 94.8406 226.633 95.3073C226.867 95.8907 227.684 96.4742 228.384 96.5909C229.901 96.8242 231.418 96.5909 232.934 96.7075C236.318 96.7075 236.202 96.7075 237.019 99.9747C237.02 99.9861 237.022 99.9974 237.025 100.009C237.231 101.036 239.313 101.065 239.702 100.091V100.091C240.651 97.3799 239.631 94.6289 237.672 92.8453ZM206.503 632.531C206.472 632.531 206.447 632.506 206.447 632.474C206.447 631.918 206.447 631.589 206.447 631.296C206.447 631.186 206.432 631.077 206.406 630.971C206.095 629.688 206.063 627.84 205.28 627.28C203.646 626.347 203.296 628.564 202.363 629.38C200.146 631.364 200.379 634.048 201.196 636.382C202.013 639.065 204.813 640.699 207.147 640.232C208.547 639.999 209.247 638.482 208.314 637.782C206.122 636.282 206.439 634.326 206.559 632.591C206.562 632.558 206.536 632.531 206.503 632.531V632.531ZM93.1964 344.964C93.1772 344.983 93.1444 344.969 93.1444 344.942C93.1443 343.217 93.1395 341.492 92.7943 339.882C92.5609 338.598 91.6274 337.548 90.3439 338.715C88.7103 340.232 87.1934 341.865 87.1934 344.549C87.0767 347.466 88.4769 349.217 90.3439 350.967C91.5107 352.134 92.4442 351.55 92.6776 350.15C93.0212 348.432 93.0276 346.601 93.2484 344.99C93.2524 344.961 93.2171 344.943 93.1964 344.964V344.964ZM250.321 198.108C250.321 196.901 250.321 195.885 250.227 194.873C250.16 194.149 250.127 193.362 249.756 192.737V192.737C249.345 192.044 248.478 191.818 247.756 192.173C247.439 192.329 247.142 192.535 246.937 192.74C243.086 195.657 244.136 201.375 247.404 204.059C248.687 205.109 249.504 204.876 249.854 203.242C250.204 201.492 250.204 199.625 250.321 197.991V198.108ZM74.5329 226.288C74.5703 226.25 74.5912 226.2 74.5912 226.147C74.5912 224.77 74.5912 223.285 74.5912 221.912C74.4746 220.395 72.9576 219.578 72.0241 220.628C70.1572 222.495 68.5236 224.246 68.8736 227.396C69.107 229.613 70.5072 230.663 71.6741 232.064C72.0241 232.53 72.841 232.997 73.191 232.88C73.7744 232.647 74.3579 231.947 74.4746 231.363C74.5893 229.757 74.4784 228.038 74.4747 226.428C74.4745 226.376 74.4955 226.325 74.5329 226.288V226.288ZM92.0331 118.178C92.0668 118.178 92.0942 118.205 92.0942 118.239C92.0942 118.675 92.0942 119.005 92.0942 119.228C92.0942 120.512 92.0942 122.145 93.7278 122.262C94.3112 122.262 95.0113 120.628 95.4781 119.578C95.8282 118.995 95.7115 117.944 96.1782 117.594C97.4417 116.752 98.2795 115.18 99.7013 114.546C100.919 114.004 103.063 114.376 103.063 113.044V113.044C103.063 112.577 102.479 111.643 101.896 111.527C97.7112 110.248 91.558 113.254 91.9724 118.122C91.9751 118.153 92.0016 118.178 92.0331 118.178V118.178ZM227.8 250.551C227.8 250.587 227.771 250.617 227.735 250.616C227.407 250.604 226.92 250.521 226.502 250.595C226.434 250.607 226.368 250.63 226.304 250.657C225.487 251.003 224.295 251.456 224.183 252.017C223.95 253.417 225.35 253.534 226.4 253.651C227.1 253.651 228.034 253.884 228.384 254.351C229.667 256.101 232.118 257.034 231.768 259.835C231.768 260.185 232.468 261.002 232.934 261.002C233.401 261.002 234.101 260.418 234.335 259.952C235.846 256.464 232.377 249.386 227.851 250.487C227.821 250.495 227.8 250.521 227.8 250.551V250.551ZM138.259 156.61C138.214 156.656 138.198 156.723 138.218 156.784C138.55 157.801 138.78 158.814 139.119 159.718C139.352 160.185 140.052 160.885 140.286 160.768C140.869 160.535 141.569 159.951 141.569 159.485C141.452 156.451 143.903 155.284 145.42 153.3V153.3C146.217 152.105 145.155 150.037 143.719 150.018C143.623 150.017 143.529 150.022 143.436 150.033C141.238 150.38 138.58 154.169 138.308 156.509C138.304 156.547 138.287 156.583 138.259 156.61V156.61ZM149.917 236.901C149.892 236.927 149.848 236.911 149.845 236.876C149.743 235.855 149.844 234.838 149.504 233.931C149.037 232.647 148.104 232.297 147.053 233.114C144.253 235.331 143.436 238.365 143.903 241.749C144.02 243.032 145.186 244.082 146.12 243.032C147.741 241.295 150.741 240.133 149.989 236.923C149.981 236.89 149.941 236.878 149.917 236.901V236.901ZM84.8949 649.003C85.2307 648.428 85.2673 647.691 85.0215 647.072C84.775 646.451 84.5428 645.866 84.1595 645.483C82.9926 644.55 82.5259 643.499 82.4092 641.983V641.983C82.4092 640.748 79.9941 640.632 79.5475 641.783C79.5222 641.849 79.5033 641.915 79.4921 641.983C79.0253 644.666 79.142 647.35 81.8258 649.1C82.0775 649.268 82.3293 649.436 82.5865 649.598C83.3981 650.111 84.4106 649.831 84.8949 649.003V649.003ZM79.5504 225.996C79.5182 225.996 79.4921 226.022 79.4921 226.054C79.4922 226.968 79.4969 227.882 79.7254 228.796V228.796C80.1356 229.822 82.1926 229.763 82.4092 228.68V228.68C82.7593 227.396 82.9927 225.879 82.7593 224.596C82.7526 224.549 82.743 224.503 82.7306 224.458C82.3848 223.184 80.1285 223.5 79.6088 224.712V224.712C79.4969 225.048 79.5994 225.49 79.6082 225.938C79.6088 225.97 79.5826 225.996 79.5504 225.996V225.996ZM99.212 348.75C101.826 348.75 101.107 343.531 99.4466 341.512C99.3093 341.345 99.1903 341.258 99.0954 341.282C96.995 341.632 97.3451 343.732 97.4618 345.366C97.4618 346.766 97.4618 348.75 99.212 348.75V348.75ZM255.157 321.86C255.198 321.819 255.222 321.763 255.222 321.704C255.221 320.91 255.213 320.019 254.988 319.345V319.345C254.559 318.272 252.47 318.164 252.095 319.257C252.085 319.286 252.077 319.315 252.071 319.345C251.838 321.095 251.954 322.846 252.071 324.479C252.071 324.946 253.005 325.763 253.471 325.763C253.938 325.763 254.638 325.063 254.872 324.479C255.098 323.687 254.995 322.784 255.095 321.985C255.101 321.938 255.123 321.894 255.157 321.86V321.86ZM261.984 321.334C261.987 321.331 261.992 321.329 261.997 321.329C262.06 321.334 262.152 321.399 262.241 321.475C262.385 321.599 262.456 321.785 262.456 321.974C262.459 322.809 262.481 323.644 262.689 324.479C262.806 324.946 263.506 325.763 263.856 325.763C264.44 325.763 265.14 325.063 265.373 324.596C265.723 323.779 265.723 322.729 265.607 321.795C265.49 320.395 266.307 318.178 263.973 318.061C263.299 318.061 262.625 320.115 261.951 321.31C261.94 321.33 261.968 321.35 261.984 321.334V321.334ZM124.119 489.41C124.085 489.376 124.066 489.33 124.067 489.282C124.082 488.599 124.291 487.819 124.066 487.256V487.256C123.671 486.07 121.278 485.797 121.032 487.023V487.023C120.799 488.657 121.032 490.407 121.149 492.041C121.149 492.308 121.455 492.613 121.825 492.847C122.342 493.174 122.996 493.157 123.428 492.724C123.537 492.616 123.641 492.497 123.73 492.38C123.894 492.167 123.993 491.911 124.036 491.645C124.147 490.962 124.09 490.228 124.171 489.563C124.178 489.507 124.159 489.45 124.119 489.41V489.41ZM254.813 197.933C254.851 197.97 254.872 198.021 254.87 198.074C254.854 198.746 254.647 199.414 254.872 199.975C254.902 200.045 254.934 200.113 254.969 200.18C255.49 201.181 257.315 201.162 257.672 200.092V200.092C257.905 199.508 257.905 198.808 257.905 198.108C257.905 196.708 258.489 194.491 256.388 194.374C254.329 194.374 254.738 196.394 254.754 197.792C254.755 197.845 254.776 197.896 254.813 197.933V197.933ZM203.245 470.971C203.203 471.013 203.179 471.07 203.18 471.13C203.18 471.932 203.188 472.935 203.413 473.721C203.433 473.772 203.458 473.823 203.485 473.872C204.071 474.928 205.86 474.788 206.097 473.604V473.604C206.33 472.671 206.33 471.737 206.33 470.804C206.213 469.52 206.913 467.303 204.93 467.303C202.75 467.303 203.503 469.447 203.307 470.85C203.301 470.896 203.278 470.938 203.245 470.971V470.971ZM216.886 470.633C216.866 470.653 216.832 470.639 216.834 470.611C216.855 470.147 217.053 469.502 216.832 469.17C216.759 469.06 216.68 468.953 216.596 468.849C215.876 467.946 213.974 467.894 213.808 469.037V469.037C213.793 469.135 213.79 469.219 213.776 469.317C213.572 470.785 213.685 472.253 213.798 473.721C213.798 473.959 214.011 474.259 214.298 474.51C214.816 474.965 215.572 474.94 216.043 474.436C216.204 474.264 216.348 474.076 216.443 473.909C216.47 473.862 216.491 473.812 216.507 473.76C216.823 472.762 216.834 471.762 216.94 470.659C216.943 470.629 216.907 470.612 216.886 470.633V470.633ZM110.356 489.298C110.377 489.277 110.414 489.292 110.413 489.323C110.396 490.004 110.19 490.78 110.414 491.34C110.437 491.409 110.465 491.475 110.498 491.539C110.995 492.506 113.214 492.545 113.214 491.457V491.457C113.312 490.186 113.246 488.832 113.085 487.534C113.023 487.037 112.99 486.537 112.649 486.171V486.171C112.101 485.584 111.106 485.668 110.635 486.319C110.469 486.549 110.341 486.803 110.297 487.023C110.072 487.7 110.282 488.485 110.296 489.274C110.297 489.305 110.334 489.32 110.356 489.298V489.298ZM151.806 160.049C153.3 158.222 153.264 153.3 150.904 153.3V153.3C148.92 153.3 149.154 155.167 149.154 156.568C149.154 158.085 148.57 160.418 150.554 160.535C151.176 160.535 151.559 160.351 151.806 160.049ZM93.8445 642.449C92.911 641.282 92.2109 639.649 91.5107 639.649C89.8771 639.649 89.7605 641.399 89.9938 642.683C90.0271 642.948 90.1265 643.205 90.2626 643.457C90.7773 644.411 92.2887 644.454 93.0049 643.64C93.2625 643.347 93.5413 643.034 93.8507 642.689C93.9125 642.62 93.9099 642.515 93.8445 642.449V642.449ZM155.907 243.654C156.72 242.951 157.166 241.528 156.272 240.932V240.932V240.932C155.563 240.577 154.799 241.309 154.211 241.84C153.541 242.445 152.867 243.089 152.304 243.732C152.101 243.936 152.016 244.296 152.026 244.655C152.039 245.138 152.311 245.677 152.768 245.833V245.833C153.184 245.974 153.531 245.69 153.867 245.408C154.537 244.845 155.211 244.255 155.907 243.654ZM212.631 634.865C214.348 634.865 214.388 631.587 213.225 630.325C213.042 630.125 212.849 629.995 212.631 629.964C211.114 629.73 210.997 631.247 210.997 632.414C210.997 633.581 210.997 634.981 212.631 634.865V634.865ZM191.278 100.039C191.278 100.06 191.252 100.073 191.235 100.059C190.33 99.3701 189.868 98.6912 189.294 98.6912C189.098 98.6912 188.84 98.8556 188.616 99.081C188.072 99.6275 188.121 100.56 188.71 101.058C188.939 101.251 189.202 101.402 189.438 101.47C189.497 101.487 189.559 101.495 189.618 101.478C189.967 101.378 190.505 100.751 191.232 100.02C191.249 100.003 191.278 100.015 191.278 100.039V100.039ZM182.297 98.1905C182.721 97.758 182.643 96.9588 182.169 96.5798V96.5798C181.68 96.1875 180.966 96.2941 180.587 96.7941C180.425 97.0075 180.309 97.2173 180.309 97.4077C180.309 97.8323 180.888 98.45 181.432 98.6459C181.537 98.6835 181.652 98.6977 181.752 98.6496C181.909 98.5742 182.088 98.403 182.297 98.1905ZM223.791 259.754C223.415 259.05 222.088 259.001 221.641 259.662V259.662C221.562 259.779 221.64 259.787 221.704 259.912C221.85 260.197 222.052 260.45 222.297 260.674C222.659 261.005 223.154 261.045 223.558 260.766C223.657 260.698 223.75 260.626 223.821 260.558C223.965 260.42 223.962 260.193 223.9 260.004C223.873 259.921 223.836 259.838 223.791 259.754ZM186.45 109.776C186.478 109.776 186.505 109.765 186.524 109.746C187.214 109.062 187.894 108.603 187.894 108.143C187.894 108.009 187.857 107.881 187.795 107.759C187.404 106.988 185.987 106.98 185.614 107.76V107.76C185.559 107.875 185.554 107.976 185.584 108.1C185.681 108.499 186.052 108.943 186.351 109.708C186.366 109.749 186.406 109.776 186.45 109.776V109.776ZM230.367 101.247C230.367 101.214 230.325 101.201 230.305 101.227C229.777 101.953 229.269 102.491 229.304 102.927C229.308 102.982 229.315 103.037 229.326 103.091C229.368 103.306 229.57 103.516 229.816 103.688C230.291 104.019 230.91 103.979 231.274 103.528C231.423 103.344 231.534 103.148 231.534 103.009C231.534 102.544 230.955 102.079 230.374 101.267C230.37 101.261 230.367 101.255 230.367 101.247V101.247ZM122.433 273.828C122.433 273.834 122.43 273.84 122.426 273.844C121.728 274.656 121.032 275.006 121.032 275.471C121.032 275.712 121.31 276.12 121.674 276.389C121.987 276.62 122.411 276.632 122.73 276.408C122.985 276.23 123.233 275.979 123.334 275.779C123.359 275.731 123.367 275.677 123.362 275.623C123.315 275.186 122.905 274.642 122.481 273.816C122.469 273.793 122.433 273.801 122.433 273.828V273.828Z" fill="#F6F6F6"/>
<path d="M15.6423 90.4408C12.6205 90.4408 10.5388 93.1268 10.5388 97.1559C10.5388 101.185 12.4414 103.804 15.4632 103.804C18.1269 103.804 19.8952 101.722 19.9176 98.7004H15.9333V96.8649H22.044V105.281H20.119V104.61C20.119 104.14 20.119 103.625 20.1862 103.2L20.0743 103.155C19.0222 104.677 17.3434 105.55 15.217 105.55C10.4045 105.55 8.25561 101.857 8.25561 97.1559C8.25561 92.4553 10.9641 88.6948 15.6423 88.6948C19.3356 88.6948 21.5964 90.7989 21.9993 93.7536H19.7385C19.358 91.6719 17.8359 90.4408 15.6423 90.4408ZM29.8544 105.617C26.3178 105.617 24.3704 103.311 24.3704 99.5062C24.3704 96.0143 26.4968 93.3954 29.8992 93.3954C33.503 93.3954 35.137 95.88 35.137 100.155H26.5192C26.6312 102.439 28.0413 103.983 29.9216 103.983C31.3989 103.983 32.5181 103.311 32.9434 101.834H35.1146C34.6222 104.319 32.4957 105.617 29.8544 105.617ZM29.8097 95.0518C28.0637 95.0518 26.855 96.1487 26.564 98.4766H32.9434C32.7196 96.1487 31.4661 95.0518 29.8097 95.0518ZM39.1783 93.7312V95.2085C40.2304 93.8207 41.6853 93.485 42.8493 93.485C44.8414 93.485 45.9606 94.246 46.5202 95.5443C46.8336 96.3277 46.9231 97.2678 46.9231 98.3647V105.281H44.8638V98.7676C44.8638 96.9769 44.6176 95.119 42.4016 95.119C40.4766 95.119 39.335 96.462 39.335 99.2376V105.281H37.2757V93.7312H39.1783ZM48.1789 93.7312H50.3054V90.9332H52.3647V93.7312H54.8717V95.4324H52.3647V101.185C52.3647 102.819 52.4318 103.737 53.7525 103.737C54.0658 103.737 54.4464 103.737 54.9164 103.625V105.281C54.3121 105.416 53.7301 105.483 53.2153 105.483C51.4022 105.483 50.3054 104.677 50.3054 102.148V95.4324H48.1789V93.7312ZM56.7968 105.281V89.0306H58.8562V105.281H56.7968ZM66.4922 105.617C62.9555 105.617 61.0081 103.311 61.0081 99.5062C61.0081 96.0143 63.1346 93.3954 66.537 93.3954C70.1407 93.3954 71.7748 95.88 71.7748 100.155H63.157C63.2689 102.439 64.6791 103.983 66.5593 103.983C68.0367 103.983 69.1559 103.311 69.5812 101.834H71.7524C71.2599 104.319 69.1335 105.617 66.4922 105.617ZM66.4474 95.0518C64.7015 95.0518 63.4928 96.1487 63.2018 98.4766H69.5812C69.3573 96.1487 68.1038 95.0518 66.4474 95.0518Z" fill="#F6F6F6"/>
<path d="M151.595 77.2471H153.788C153.788 79.4184 155.02 80.7166 157.101 80.7166C158.982 80.7166 160.325 79.5079 160.325 77.8515C160.325 76.1503 159.071 75.143 156.967 75.143H156.251V73.4195H156.743C158.914 73.4195 160.145 72.457 160.145 70.7782C160.145 69.1666 158.959 68.1593 157.124 68.1593C155.154 68.1593 153.968 69.3233 153.9 71.405H151.774C151.908 68.2488 153.945 66.4581 157.236 66.4581C160.257 66.4581 162.317 68.1593 162.317 70.5991C162.317 72.2555 161.153 73.7553 159.541 74.1582V74.2701C161.489 74.7401 162.518 76.0608 162.518 77.9858C162.518 80.5823 160.168 82.4178 156.989 82.4178C153.654 82.4178 151.595 80.3809 151.595 77.2471Z" fill="#F6F6F6"/>
<path d="M179.944 160.801V162.569H177.191V166.441H175.11V162.569H168.103V160.868L174.796 151.153H177.191V160.801H179.944ZM173.699 155.831L170.297 160.801H175.221V157.779C175.221 156.704 175.244 154.623 175.333 153.504L175.177 153.481C174.684 154.377 174.304 154.959 173.699 155.831Z" fill="#F6F6F6"/>
<path d="M172.67 230.413H170.364C171.282 225.936 173.274 221.504 175.893 216.938H167.835V215.125H178.154V216.669C175.692 220.989 173.655 225.354 172.67 230.413Z" fill="#F6F6F6"/>
<path d="M283.306 202.997H281.381C281.314 202.661 281.246 202.214 281.224 201.43C280.239 202.728 278.963 203.243 277.307 203.243C274.755 203.243 273.3 201.788 273.3 199.751C273.3 195.969 278.135 196.103 281 195.767V195.364C281 193.641 280.217 192.656 278.448 192.656C276.837 192.656 275.762 193.462 275.762 195.006H273.725C273.725 192.633 275.673 191.111 278.448 191.111C282.813 191.111 283.015 194.021 283.015 196.349V199.505C283.015 200.848 283.082 201.945 283.306 202.997ZM281 197.356C279.254 197.58 275.382 197.446 275.382 199.796C275.382 200.915 276.3 201.744 277.777 201.744C279.433 201.744 281 201.072 281 198.005V197.356ZM287.78 191.447V192.924C288.832 191.537 290.287 191.201 291.451 191.201C293.443 191.201 294.562 191.962 295.122 193.26C295.435 194.044 295.525 194.984 295.525 196.08V202.997H293.466V196.483C293.466 194.693 293.219 192.835 291.003 192.835C289.078 192.835 287.937 194.178 287.937 196.953V202.997H285.878V191.447H287.78ZM306.115 202.997V201.475C305.331 202.639 304.1 203.243 302.533 203.243C299.489 203.243 297.587 201.072 297.587 197.222C297.587 193.775 299.534 191.201 302.533 191.201C304.1 191.201 305.264 191.626 306.025 192.79V186.746H308.085V202.997H306.115ZM306.07 197.222C306.07 194.469 304.772 192.835 302.824 192.835C300.922 192.835 299.713 194.469 299.713 197.222C299.713 199.908 300.922 201.609 302.824 201.609C304.772 201.609 306.07 199.908 306.07 197.222Z" fill="#F6F6F6"/>
<path d="M280.536 314.126V312.582C283.065 312.515 284.654 311.866 284.923 309.65H286.893V325.318H284.587V314.126H280.536ZM288.679 314.126V312.582C291.208 312.515 292.797 311.866 293.066 309.65H295.036V325.318H292.73V314.126H288.679Z" fill="#F6F6F6"/>
<path d="M199.728 271.02H197.534C197.355 269.363 196.415 268.513 194.848 268.513C192.543 268.513 191.155 270.706 191.155 274.131V274.691C192.028 273.169 193.326 272.43 195.05 272.43C197.601 272.43 199.884 274.288 199.884 277.466C199.884 280.779 197.534 282.771 194.49 282.771C190.998 282.771 189.028 279.906 189.028 275.004C189.028 269.878 191.177 266.812 194.848 266.812C197.646 266.812 199.437 268.356 199.728 271.02ZM194.759 274.131C192.901 274.131 191.513 275.564 191.513 277.511C191.513 279.593 192.901 281.093 194.759 281.093C196.549 281.093 197.78 279.615 197.78 277.556C197.78 275.519 196.616 274.131 194.759 274.131Z" fill="#F6F6F6"/>
<path d="M138 276.513L138.85 267.851H147.647V269.641H140.574L140.036 274.499C141.111 273.379 142.073 272.887 143.595 272.887C146.505 272.887 148.587 275.058 148.587 278.08C148.587 281.214 146.326 283.474 143.125 283.474C140.171 283.474 138.156 281.773 137.798 279.065H139.947C140.148 280.744 141.379 281.773 143.103 281.773C145.095 281.773 146.416 280.385 146.416 278.192C146.416 276.088 145.095 274.588 143.193 274.588C141.693 274.588 140.618 275.349 140.193 276.715L138 276.513Z" fill="#F6F6F6"/>
<path d="M42.6224 228.64C39.3544 228.64 37.0936 226.805 37.0936 224.231C37.0936 222.216 38.1009 220.94 40.2945 220.426V220.314C38.5038 219.911 37.5189 218.59 37.5189 216.844C37.5189 214.36 39.5558 212.681 42.6224 212.681C45.6442 212.681 47.6811 214.36 47.6811 216.844C47.6811 218.59 46.7186 219.911 44.9055 220.314V220.426C47.0992 220.94 48.1064 222.216 48.1064 224.231C48.1064 226.805 45.8457 228.64 42.6224 228.64ZM42.6224 226.984C44.5922 226.984 45.9128 225.753 45.9128 224.097C45.9128 222.373 44.5922 221.254 42.6224 221.254C40.6302 221.254 39.3096 222.373 39.3096 224.097C39.3096 225.753 40.6302 226.984 42.6224 226.984ZM42.6224 219.53C44.4131 219.53 45.5994 218.523 45.5994 216.934C45.5994 215.389 44.4579 214.337 42.6224 214.337C40.7645 214.337 39.6006 215.389 39.6006 216.934C39.6006 218.523 40.8093 219.53 42.6224 219.53Z" fill="#F6F6F6"/>
<path d="M50.5425 346.408V335.306H47.1402V333.851C49.6919 333.717 50.6544 333.023 50.8559 331.12H52.6018V346.408H50.5425ZM60.9568 330.784C64.4039 330.784 66.5527 333.605 66.5527 338.753C66.5527 344.036 64.4039 346.744 60.9568 346.744C57.5096 346.744 55.3832 343.901 55.3832 338.753C55.3832 333.605 57.5096 330.784 60.9568 330.784ZM60.9568 332.485C58.6512 332.485 57.5768 334.679 57.5768 338.753C57.5768 342.737 58.6512 345.043 60.9568 345.043C63.2399 345.043 64.3367 342.737 64.3367 338.753C64.3367 334.679 63.2399 332.485 60.9568 332.485Z" fill="#F6F6F6"/>
<path d="M27.7999 387.181L23.5246 375.631H25.7853L27.8222 381.406C28.2699 382.704 28.6728 384.092 29.0086 385.39H29.1429C29.4563 384.092 29.8816 382.704 30.3292 381.406L32.3662 375.631H34.4702L30.1949 387.181H27.7999ZM40.4931 387.516C36.9564 387.516 35.009 385.211 35.009 381.406C35.009 377.914 37.1355 375.295 40.5378 375.295C44.1416 375.295 45.7756 377.779 45.7756 382.055H37.1579C37.2698 384.338 38.68 385.882 40.5602 385.882C42.0375 385.882 43.1567 385.211 43.582 383.734H45.7533C45.2608 386.218 43.1344 387.516 40.4931 387.516ZM40.4483 376.951C38.7024 376.951 37.4936 378.048 37.2026 380.376H43.582C43.3582 378.048 42.1047 376.951 40.4483 376.951ZM47.9143 375.631H49.8617V377.332C50.7571 375.944 51.8315 375.496 53.1074 375.496C53.5327 375.496 53.9804 375.541 54.4057 375.631V377.444C53.8908 377.354 53.4432 377.287 53.0402 377.287C50.5556 377.287 49.9737 379.078 49.9737 381.876V387.181H47.9143V375.631ZM59.0515 387.427L54.6643 375.631H56.9474L58.962 381.406C59.432 382.726 59.7454 384.047 60.1483 385.368H60.2602C60.6408 384.092 61.0661 382.682 61.4914 381.406L63.5283 375.631H65.61L61.3123 387.181C60.3722 390.023 59.2082 391.769 56.8131 391.769C56.4102 391.769 55.9626 391.747 55.4701 391.657V389.934C55.8283 390.023 56.164 390.068 56.455 390.068C57.9995 390.068 58.6262 388.949 59.0515 387.427Z" fill="#F6F6F6"/>
<path d="M72.3866 491.928V480.825H68.9843V479.37C71.5361 479.236 72.4986 478.542 72.7 476.64H74.4459V491.928H72.3866ZM88.2688 486.287V488.055H85.5156V491.928H83.4339V488.055H76.4278V486.354L83.1206 476.64H85.5156V486.287H88.2688ZM82.0237 481.318L78.6214 486.287H83.5458V483.265C83.5458 482.191 83.5682 480.109 83.6578 478.99L83.5011 478.968C83.0086 479.863 82.6281 480.445 82.0237 481.318Z" fill="#F6F6F6"/>
<path d="M112.458 646.586V635.484H109.056V634.029C111.608 633.894 112.57 633.2 112.772 631.298H114.518V646.586H112.458ZM127.999 635.17H125.805C125.626 633.514 124.686 632.663 123.119 632.663C120.813 632.663 119.426 634.857 119.426 638.282V638.841C120.299 637.319 121.597 636.58 123.32 636.58C125.872 636.58 128.155 638.438 128.155 641.617C128.155 644.93 125.805 646.922 122.761 646.922C119.269 646.922 117.299 644.057 117.299 639.155C117.299 634.029 119.448 630.962 123.119 630.962C125.917 630.962 127.708 632.507 127.999 635.17ZM123.029 638.282C121.171 638.282 119.784 639.714 119.784 641.661C119.784 643.743 121.171 645.243 123.029 645.243C124.82 645.243 126.051 643.766 126.051 641.706C126.051 639.669 124.887 638.282 123.029 638.282Z" fill="#F6F6F6"/>
<path d="M139.871 698.608V687.506H136.468V686.051C139.02 685.917 139.982 685.223 140.184 683.32H141.93V698.608H139.871ZM150.15 698.944C146.882 698.944 144.622 697.109 144.622 694.535C144.622 692.52 145.629 691.244 147.823 690.729V690.617C146.032 690.214 145.047 688.894 145.047 687.148C145.047 684.663 147.084 682.984 150.15 682.984C153.172 682.984 155.209 684.663 155.209 687.148C155.209 688.894 154.247 690.214 152.434 690.617V690.729C154.627 691.244 155.635 692.52 155.635 694.535C155.635 697.109 153.374 698.944 150.15 698.944ZM150.15 697.288C152.12 697.288 153.441 696.057 153.441 694.4C153.441 692.677 152.12 691.557 150.15 691.557C148.158 691.557 146.838 692.677 146.838 694.4C146.838 696.057 148.158 697.288 150.15 697.288ZM150.15 689.834C151.941 689.834 153.128 688.827 153.128 687.237C153.128 685.693 151.986 684.641 150.15 684.641C148.293 684.641 147.129 685.693 147.129 687.237C147.129 688.827 148.337 689.834 150.15 689.834Z" fill="#F6F6F6"/>
<path d="M233.8 619.515H235.814C235.322 622.336 233.71 623.723 230.89 623.723C227.398 623.723 225.495 621.261 225.495 617.613C225.495 614.121 227.465 611.502 230.935 611.502C233.71 611.502 235.434 613.024 235.792 615.621H233.643C233.397 613.986 232.457 613.158 230.912 613.158C228.786 613.158 227.644 614.949 227.644 617.613C227.644 620.299 228.831 622.089 230.912 622.089C232.412 622.089 233.442 621.261 233.8 619.515ZM246.988 623.388H245.063C244.996 623.052 244.929 622.604 244.907 621.821C243.922 623.119 242.646 623.634 240.99 623.634C238.438 623.634 236.983 622.179 236.983 620.142C236.983 616.359 241.818 616.493 244.683 616.158V615.755C244.683 614.031 243.899 613.046 242.131 613.046C240.52 613.046 239.445 613.852 239.445 615.397H237.408C237.408 613.024 239.356 611.502 242.131 611.502C246.496 611.502 246.697 614.412 246.697 616.74V619.896C246.697 621.239 246.765 622.336 246.988 623.388ZM244.683 617.747C242.937 617.971 239.065 617.837 239.065 620.187C239.065 621.306 239.982 622.134 241.46 622.134C243.116 622.134 244.683 621.463 244.683 618.396V617.747ZM251.62 622.089V627.887H249.56V611.838H251.53V613.405C252.314 612.241 253.522 611.591 255.223 611.591C258.312 611.591 260.058 614.098 260.058 617.613C260.058 621.396 257.977 623.634 255.134 623.634C253.567 623.634 252.336 623.186 251.62 622.089ZM251.575 617.613C251.575 620.232 252.873 622 254.821 622C256.723 622 257.954 620.366 257.954 617.613C257.954 614.859 256.723 613.225 254.821 613.225C252.873 613.225 251.575 615.016 251.575 617.613ZM271.406 623.388H269.481C269.414 623.052 269.347 622.604 269.324 621.821C268.339 623.119 267.064 623.634 265.407 623.634C262.855 623.634 261.4 622.179 261.4 620.142C261.4 616.359 266.235 616.493 269.101 616.158V615.755C269.101 614.031 268.317 613.046 266.549 613.046C264.937 613.046 263.863 613.852 263.863 615.397H261.826C261.826 613.024 263.773 611.502 266.549 611.502C270.914 611.502 271.115 614.412 271.115 616.74V619.896C271.115 621.239 271.182 622.336 271.406 623.388ZM269.101 617.747C267.355 617.971 263.482 617.837 263.482 620.187C263.482 621.306 264.4 622.134 265.877 622.134C267.534 622.134 269.101 621.463 269.101 618.396V617.747ZM275.948 621.91V623.388H273.978V607.137H276.037V613.203C277.022 611.972 278.208 611.591 279.641 611.591C282.64 611.591 284.476 614.098 284.476 617.613C284.476 621.328 282.394 623.634 279.551 623.634C277.985 623.634 276.754 623.074 275.948 621.91ZM275.992 617.613C275.992 620.053 277.291 622 279.238 622C281.141 622 282.372 620.366 282.372 617.613C282.372 614.859 281.141 613.225 279.238 613.225C277.291 613.225 275.992 615.016 275.992 617.613ZM286.624 623.388V607.137H288.683V623.388H286.624ZM296.319 623.723C292.783 623.723 290.835 621.418 290.835 617.613C290.835 614.121 292.962 611.502 296.364 611.502C299.968 611.502 301.602 613.986 301.602 618.262H292.984C293.096 620.545 294.506 622.089 296.386 622.089C297.864 622.089 298.983 621.418 299.408 619.941H301.579C301.087 622.425 298.961 623.723 296.319 623.723ZM296.274 613.158C294.529 613.158 293.32 614.255 293.029 616.583H299.408C299.184 614.255 297.931 613.158 296.274 613.158Z" fill="#F6F6F6"/>
<path d="M262.897 670.489V659.387H259.495V657.932C262.047 657.798 263.009 657.104 263.211 655.201H264.957V670.489H262.897ZM267.805 666.662H269.909C270.133 668.251 271.23 669.124 272.842 669.124C275.125 669.124 276.333 667.042 276.333 663.528V662.655C275.505 664.065 274.297 664.759 272.595 664.759C269.663 664.759 267.649 662.856 267.649 659.835C267.649 656.925 269.999 654.865 272.953 654.865C276.58 654.865 278.46 657.686 278.46 662.61C278.46 667.848 276.513 670.825 272.909 670.825C270.021 670.825 268.051 669.281 267.805 666.662ZM272.797 656.544C270.984 656.544 269.708 657.91 269.708 659.835C269.708 661.692 270.961 663.08 272.73 663.08C274.588 663.08 275.975 661.692 275.975 659.879C275.975 657.932 274.588 656.544 272.797 656.544Z" fill="#F6F6F6"/>
<path d="M280.536 356.305V354.761C283.065 354.694 284.654 354.044 284.923 351.828H286.893V367.497H284.587V356.305H280.536ZM289.149 362.371H291.298C291.477 364.52 292.484 365.953 294.722 365.953C296.782 365.953 298.125 364.744 298.125 362.953C298.125 361.006 296.58 360.11 294.543 360.11H293.648V358.342H294.454C296.177 358.342 297.61 357.536 297.61 355.813C297.61 354.358 296.58 353.373 294.722 353.373C292.641 353.373 291.678 354.873 291.678 356.596H289.552C289.641 353.686 291.589 351.56 294.812 351.56C297.722 351.56 299.803 353.037 299.803 355.544C299.803 357.424 298.774 358.476 297.453 358.991V359.036C299.132 359.461 300.385 360.782 300.385 362.908C300.385 365.953 297.968 367.788 294.745 367.788C291.32 367.788 289.149 365.774 289.149 362.371Z" fill="#F6F6F6"/>
<path d="M235.48 477.164V466.062H232.078V464.607C234.63 464.472 235.592 463.779 235.794 461.876H237.54V477.164H235.48ZM240.612 470.538L241.463 461.876H250.259V463.667H243.186L242.649 468.524C243.723 467.405 244.686 466.912 246.208 466.912C249.118 466.912 251.2 469.084 251.2 472.105C251.2 475.239 248.939 477.5 245.738 477.5C242.783 477.5 240.769 475.799 240.411 473.09H242.559C242.761 474.769 243.992 475.799 245.716 475.799C247.708 475.799 249.028 474.411 249.028 472.217C249.028 470.113 247.708 468.613 245.805 468.613C244.305 468.613 243.231 469.374 242.806 470.74L240.612 470.538Z" fill="#F6F6F6"/>
<path d="M276.365 102.468H266.113V101.819C266.113 100.364 266.561 98.8864 267.3 97.9462C267.949 97.1628 268.889 96.3346 270.724 95.193C273.231 93.6709 274.127 92.686 274.127 91.1416C274.127 89.4852 272.963 88.545 271.284 88.545C269.359 88.545 268.262 89.7314 268.172 92.0369H266.091C266.136 88.7241 268.329 86.8439 271.463 86.8439C274.418 86.8439 276.275 88.7017 276.275 91.2535C276.275 93.268 275.156 94.7006 272.224 96.5361C270.344 97.7224 269.918 98.1029 269.336 98.7073C268.889 99.2445 268.531 99.7593 268.441 100.655H276.365V102.468Z" fill="#F6F6F6"/>
<path d="M235.591 16H225.339V15.3509C225.339 13.8959 225.786 12.4186 226.525 11.4785C227.174 10.695 228.114 9.86683 229.95 8.72526C232.457 7.20316 233.352 6.21827 233.352 4.67379C233.352 3.01739 232.188 2.07727 230.509 2.07727C228.584 2.07727 227.488 3.26361 227.398 5.56914H225.316C225.361 2.25634 227.555 0.376096 230.688 0.376096C233.643 0.376096 235.501 2.23395 235.501 4.78571C235.501 6.80025 234.382 8.23282 231.45 10.0683C229.569 11.2546 229.144 11.6352 228.562 12.2395C228.114 12.7767 227.756 13.2916 227.667 14.1869H235.591V16ZM242.515 0.376096C245.962 0.376096 248.111 3.19646 248.111 8.34473C248.111 13.6273 245.962 16.3358 242.515 16.3358C239.068 16.3358 236.941 13.493 236.941 8.34473C236.941 3.19646 239.068 0.376096 242.515 0.376096ZM242.515 2.07727C240.209 2.07727 239.135 4.27088 239.135 8.34473C239.135 12.3291 240.209 14.6346 242.515 14.6346C244.798 14.6346 245.895 12.3291 245.895 8.34473C245.895 4.27088 244.798 2.07727 242.515 2.07727Z" fill="#F6F6F6"/>
<circle cx="194.722" cy="10.896" r="8.08444" fill="#F6F6F6"/>
<circle cx="184.176" cy="102.989" r="8.08444" fill="#F6F6F6"/>
<circle cx="99.1176" cy="119.158" r="8.08444" fill="#F6F6F6"/>
<circle cx="145.511" cy="156.415" r="8.08444" fill="#F6F6F6"/>
<circle cx="252.369" cy="197.892" r="8.08444" fill="#F6F6F6"/>
<circle cx="227.763" cy="256.241" r="8.08444" fill="#F6F6F6"/>
<circle cx="149.729" cy="240.073" r="8.08444" fill="#F6F6F6"/>
<circle cx="76.6211" cy="226.715" r="8.08444" fill="#F6F6F6"/>
<circle cx="117.396" cy="273.115" r="8.08444" fill="#F6F6F6"/>
<circle cx="258.696" cy="322.324" r="8.08444" fill="#F6F6F6"/>
<circle cx="258.696" cy="351.145" r="8.08444" fill="#F6F6F6"/>
<circle cx="93.4883" cy="344.819" r="8.08444" fill="#F6F6F6"/>
<circle cx="92.0825" cy="371.533" r="8.08444" fill="#F6F6F6"/>
<circle cx="117.396" cy="488.933" r="8.08444" fill="#F6F6F6"/>
<circle cx="210.188" cy="471.358" r="8.08444" fill="#F6F6F6"/>
<circle cx="206.673" cy="634.454" r="8.08444" fill="#F6F6F6"/>
<circle cx="238.309" cy="665.385" r="8.08444" fill="#F6F6F6"/>
<circle cx="111.767" cy="682.959" r="8.08444" fill="#F6F6F6"/>
<circle cx="86.4633" cy="644.294" r="8.08444" fill="#F6F6F6"/>
<circle cx="232.685" cy="97.3657" r="8.08444" fill="#F6F6F6"/>
</svg>
