<svg width="539" height="77" viewBox="0 0 539 77" fill="none" xmlns="http://www.w3.org/2000/svg">
<path d="M195.035 61.3021C182.052 61.3021 174.903 52.8384 174.903 38.8693C174.903 26.0506 182.71 16.4365 195.2 16.4365C208.429 16.4365 214.428 25.5575 214.428 41.2523H182.792C183.203 49.6337 188.379 55.3036 195.282 55.3036C200.705 55.3036 204.814 52.8384 206.375 47.4151H214.346C212.538 56.5361 204.732 61.3021 195.035 61.3021ZM194.871 22.5172C188.462 22.5172 184.024 26.5436 182.956 35.0894H206.375C205.553 26.5436 200.952 22.5172 194.871 22.5172Z" fill="#F6F6F6"/>
<path d="M160.97 60.0695V0.413086H168.529V60.0695H160.97Z" fill="#F6F6F6"/>
<path d="M130.234 17.6699H138.041V7.39844H145.6V17.6699H154.968V23.9149H145.6V45.0329C145.6 51.0314 145.847 54.4005 150.695 54.4005C151.845 54.4005 153.242 54.4005 154.968 53.9896V60.0703C152.749 60.5633 150.613 60.8098 148.723 60.8098C142.067 60.8098 138.041 57.8517 138.041 48.5663V23.9149H130.234V17.6699Z" fill="#F6F6F6"/>
<path d="M97.6838 17.6695V23.0928C101.546 17.9982 106.887 16.7656 111.16 16.7656C118.473 16.7656 122.582 19.5594 124.636 24.3254C125.786 27.2014 126.115 30.6526 126.115 34.679V60.0699H118.555V36.1581C118.555 29.5844 117.651 22.7641 109.516 22.7641C102.45 22.7641 98.259 27.6944 98.259 37.8837V60.0699H90.6992V17.6695H97.6838Z" fill="#F6F6F6"/>
<path d="M64.9337 61.3021C51.9507 61.3021 44.8018 52.8384 44.8018 38.8693C44.8018 26.0506 52.608 16.4365 65.0981 16.4365C78.3277 16.4365 84.3262 25.5575 84.3262 41.2523H52.6902C53.1011 49.6337 58.2779 55.3036 65.1803 55.3036C70.6036 55.3036 74.7121 52.8384 76.2734 47.4151H84.244C82.4362 56.5361 74.63 61.3021 64.9337 61.3021ZM64.7694 22.5172C58.36 22.5172 53.9228 26.5436 52.8546 35.0894H76.2734C75.4517 26.5436 70.8501 22.5172 64.7694 22.5172Z" fill="#F6F6F6"/>
<path d="M38.4288 17.6695V53.9892C38.4288 68.4514 34.3203 76.9151 19.8581 76.9151C9.5867 76.9151 3.09516 72.56 2.35562 63.6033H10.1619C10.4906 68.8623 14.024 71.2452 20.0225 71.2452C27.4179 71.2452 31.2799 67.6297 31.2799 56.4544V52.2637C27.6644 57.1118 23.8845 58.673 17.886 58.673C7.36807 58.673 0.547852 50.045 0.547852 38.048C0.547852 27.037 7.03939 16.7656 18.2969 16.7656C24.4597 16.7656 28.9791 19.0664 31.4443 23.5858V17.6695H38.4288ZM19.7759 22.5998C12.4627 22.5998 8.27196 28.5161 8.27196 37.2263C8.27196 47.0047 12.7092 52.8388 19.7759 52.8388C26.8427 52.8388 31.3621 46.8403 31.3621 37.3085C31.3621 28.6805 26.6783 22.5998 19.7759 22.5998Z" fill="#F6F6F6"/>
<path d="M502.324 46.4291H509.966C509.966 52.4276 513.992 55.4679 520.977 55.4679C526.729 55.4679 530.015 53.2493 530.015 49.1407C530.015 43.9639 524.839 43.06 519.087 41.9096C511.691 40.5949 503.31 39.1158 503.31 28.7622C503.31 21.5311 509.883 16.4365 519.908 16.4365C530.591 16.4365 536.754 21.449 536.836 30.6522H529.358C529.276 25.0645 526.236 22.3529 519.744 22.3529C514.567 22.3529 511.198 24.6537 511.198 28.2692C511.198 33.0351 516.046 34.1034 521.634 35.1716C529.194 36.6507 538.068 38.1298 538.068 48.6477C538.068 56.2896 530.755 61.3021 520.812 61.3021C509.062 61.3021 502.406 55.8788 502.324 46.4291Z" fill="#F6F6F6"/>
<path d="M470.723 39.1162V60.0699H463.163V36.5689C463.163 30.4061 462.588 22.7641 454.699 22.7641C445.578 22.7641 444.428 32.789 444.428 39.1162V60.0699H436.868V17.6695H443.935V23.0928C446.4 19.1486 451.002 16.7656 456.671 16.7656C461.52 16.7656 466.286 19.0664 468.258 24.5719C471.791 19.0664 477.296 16.7656 483.295 16.7656C493.073 16.7656 496.935 22.8463 496.935 32.4604V60.0699H489.376V36.5689C489.376 30.4061 488.883 22.7641 480.994 22.7641C471.873 22.7641 470.723 32.789 470.723 39.1162Z" fill="#F6F6F6"/>
<path d="M411.103 61.3021C398.12 61.3021 390.971 52.8384 390.971 38.8693C390.971 26.0506 398.777 16.4365 411.267 16.4365C424.497 16.4365 430.495 25.5575 430.495 41.2523H398.859C399.27 49.6337 404.447 55.3036 411.349 55.3036C416.772 55.3036 420.881 52.8384 422.442 47.4151H430.413C428.605 56.5361 420.799 61.3021 411.103 61.3021ZM410.938 22.5172C404.529 22.5172 400.092 26.5436 399.023 35.0894H422.442C421.621 26.5436 417.019 22.5172 410.938 22.5172Z" fill="#F6F6F6"/>
<path d="M364 17.6699H371.806V7.39844H379.366V17.6699H388.734V23.9149H379.366V45.0329C379.366 51.0314 379.613 54.4005 384.461 54.4005C385.611 54.4005 387.008 54.4005 388.734 53.9896V60.0703C386.515 60.5633 384.379 60.8098 382.489 60.8098C375.833 60.8098 371.806 57.8517 371.806 48.5663V23.9149H364V17.6699Z" fill="#F6F6F6"/>
<path d="M326.228 46.4291H333.869C333.869 52.4276 337.896 55.4679 344.88 55.4679C350.632 55.4679 353.919 53.2493 353.919 49.1407C353.919 43.9639 348.742 43.06 342.99 41.9096C335.595 40.5949 327.214 39.1158 327.214 28.7622C327.214 21.5311 333.787 16.4365 343.812 16.4365C354.494 16.4365 360.657 21.449 360.74 30.6522H353.262C353.18 25.0645 350.139 22.3529 343.648 22.3529C338.471 22.3529 335.102 24.6537 335.102 28.2692C335.102 33.0351 339.95 34.1034 345.538 35.1716C353.098 36.6507 361.972 38.1298 361.972 48.6477C361.972 56.2896 354.659 61.3021 344.716 61.3021C332.966 61.3021 326.31 55.8788 326.228 46.4291Z" fill="#F6F6F6"/>
<path d="M301.192 60.9732L285.086 17.6689H293.467L300.863 38.8692C302.588 43.7173 303.739 48.5654 305.218 53.4135H305.629C307.026 48.7297 308.587 43.5529 310.148 38.8692L317.626 17.6689H325.268L309.491 60.0694C306.04 70.5051 301.767 76.9145 292.974 76.9145C291.495 76.9145 289.852 76.8323 288.044 76.5036V70.1764C289.359 70.5051 290.591 70.6695 291.66 70.6695C297.329 70.6695 299.63 66.5609 301.192 60.9732Z" fill="#F6F6F6"/>
<path d="M248.631 46.4291H256.273C256.273 52.4276 260.299 55.4679 267.284 55.4679C273.036 55.4679 276.323 53.2493 276.323 49.1407C276.323 43.9639 271.146 43.06 265.394 41.9096C257.998 40.5949 249.617 39.1158 249.617 28.7622C249.617 21.5311 256.191 16.4365 266.216 16.4365C276.898 16.4365 283.061 21.449 283.143 30.6522H275.665C275.583 25.0645 272.543 22.3529 266.051 22.3529C260.874 22.3529 257.505 24.6537 257.505 28.2692C257.505 33.0351 262.353 34.1034 267.941 35.1716C275.501 36.6507 284.375 38.1298 284.375 48.6477C284.375 56.2896 277.062 61.3021 267.119 61.3021C255.369 61.3021 248.713 55.8788 248.631 46.4291Z" fill="#F6F6F6"/>
</svg>
